<mxfile host="app.diagrams.net" modified="2023-04-28T13:24:22.410Z" agent="Mozilla/5.0 (Windows NT 10.0; Win64; x64) AppleWebKit/537.36 (KHTML, like Gecko) Chrome/112.0.0.0 Safari/537.36" version="21.2.3" etag="f9sE6Ji4am7XAMnjOfhZ" type="github">
  <diagram name="PÃ¡gina-1" id="AuWY8ynZfD70hGWOqNP5">
    <mxGraphModel>
      <root>
        <mxCell id="0" />
        <mxCell id="1" parent="0" />
      </root>
    </mxGraphModel>
  </diagram>
</mxfile>
